<?xml version="1.0" encoding="UTF-8" standalone="no"?>
<!-- Created with Inkscape (http://www.inkscape.org/) -->

<svg
   xmlns:dc="http://purl.org/dc/elements/1.1/"
   xmlns:cc="http://creativecommons.org/ns#"
   xmlns:rdf="http://www.w3.org/1999/02/22-rdf-syntax-ns#"
   xmlns:svg="http://www.w3.org/2000/svg"
   xmlns="http://www.w3.org/2000/svg"
   xmlns:sodipodi="http://sodipodi.sourceforge.net/DTD/sodipodi-0.dtd"
   xmlns:inkscape="http://www.inkscape.org/namespaces/inkscape"
   width="158.21884mm"
   height="16.306013mm"
   viewBox="0 0 158.21883 16.306012"
   version="1.1"
   id="svg8"
   inkscape:version="0.92.4 (5da689c313, 2019-01-14)"
   sodipodi:docname="logo.svg">
  <defs
     id="defs2" />
  <sodipodi:namedview
     id="base"
     pagecolor="#000000"
     bordercolor="#666666"
     borderopacity="1.0"
     inkscape:pageopacity="0"
     inkscape:pageshadow="2"
     inkscape:zoom="2.8"
     inkscape:cx="463.65026"
     inkscape:cy="30.11488"
     inkscape:document-units="mm"
     inkscape:current-layer="layer1"
     showgrid="false"
     inkscape:pagecheckerboard="false"
     fit-margin-top="0"
     fit-margin-left="0"
     fit-margin-right="0"
     fit-margin-bottom="0"
     inkscape:window-width="3840"
     inkscape:window-height="2035"
     inkscape:window-x="3827"
     inkscape:window-y="809"
     inkscape:window-maximized="1" />
  <metadata
     id="metadata5">
    <rdf:RDF>
      <cc:Work
         rdf:about="">
        <dc:format>image/svg+xml</dc:format>
        <dc:type
           rdf:resource="http://purl.org/dc/dcmitype/StillImage" />
        <dc:title></dc:title>
      </cc:Work>
    </rdf:RDF>
  </metadata>
  <g
     inkscape:label="Layer 1"
     inkscape:groupmode="layer"
     id="layer1"
     transform="translate(-17.984056,-182.49555)">
    <path
       sodipodi:nodetypes="cccc"
       inkscape:connector-curvature="0"
       id="rect1037"
       d="m 22.896098,183.2571 2.573052,5.46249 2.750869,-5.46249 z"
       style="font-style:normal;font-variant:normal;font-weight:bold;font-stretch:normal;font-size:25.39999962px;line-height:1.25;font-family:'PT Serif';-inkscape-font-specification:'PT Serif Bold';text-align:center;writing-mode:lr-tb;direction:ltr;text-anchor:middle;opacity:1;vector-effect:none;fill:#6c63ff;fill-opacity:1;fill-rule:evenodd;stroke:#6c63ff;stroke-width:1.52310693;stroke-linecap:round;stroke-linejoin:round;stroke-miterlimit:4;stroke-dasharray:none;stroke-dashoffset:0;stroke-opacity:1;paint-order:fill markers stroke" />
    <path
       d="m 127.89315,182.51255 q 0.65476,0 1.03858,0.4064 0.38382,0.38382 0.38382,1.03858 v 13.25315 q 0,0.65476 -0.4064,1.06116 -0.38382,0.4064 -1.016,0.4064 -0.65475,0 -1.03857,-0.4064 -0.38383,-0.4064 -0.38383,-1.06116 v -5.57671 h -8.15057 v 5.57671 q 0,0.65476 -0.4064,1.06116 -0.38383,0.4064 -1.03858,0.4064 -0.63218,0 -1.03858,-0.4064 -0.38382,-0.4064 -0.38382,-1.06116 v -13.25315 q 0,-0.65476 0.38382,-1.03858 0.38382,-0.4064 1.03858,-0.4064 0.65475,0 1.03858,0.4064 0.4064,0.38382 0.4064,1.03858 v 5.32835 h 8.15057 v -5.32835 q 0,-0.65476 0.38383,-1.03858 0.38382,-0.4064 1.03857,-0.4064 z"
       style="font-style:normal;font-variant:normal;font-weight:bold;font-stretch:normal;font-size:22.57777786px;line-height:1.25;font-family:nUNITO;-inkscape-font-specification:'nUNITO Bold';text-align:center;writing-mode:lr-tb;direction:ltr;text-anchor:middle;fill:#6c63ff;fill-opacity:1;fill-rule:evenodd;stroke:none;stroke-width:0.79374999;stroke-linecap:round;stroke-linejoin:round;stroke-miterlimit:4;stroke-dasharray:none;stroke-dashoffset:0;stroke-opacity:1;paint-order:fill markers stroke"
       id="path1130"
       inkscape:connector-curvature="0" />
    <path
       d="m 137.95437,198.65566 q -0.67733,0 -1.08373,-0.38382 -0.38382,-0.4064 -0.38382,-1.06116 v -12.192 h -4.10916 q -1.35466,0 -1.35466,-1.19662 0,-1.19662 1.35466,-1.19662 h 11.13085 q 1.35466,0 1.35466,1.19662 0,1.19662 -1.35466,1.19662 h -4.10916 v 12.192 q 0,0.65476 -0.4064,1.06116 -0.38382,0.38382 -1.03858,0.38382 z"
       style="font-style:normal;font-variant:normal;font-weight:bold;font-stretch:normal;font-size:22.57777786px;line-height:1.25;font-family:nUNITO;-inkscape-font-specification:'nUNITO Bold';text-align:center;writing-mode:lr-tb;direction:ltr;text-anchor:middle;fill:#6c63ff;fill-opacity:1;fill-rule:evenodd;stroke:none;stroke-width:0.79374999;stroke-linecap:round;stroke-linejoin:round;stroke-miterlimit:4;stroke-dasharray:none;stroke-dashoffset:0;stroke-opacity:1;paint-order:fill markers stroke"
       id="path1132"
       inkscape:connector-curvature="0" />
    <path
       d="m 160.71912,182.51255 q 0.63218,0 1.016,0.4064 0.38383,0.38382 0.38383,1.03858 v 13.36604 q 0,0.63218 -0.36125,0.99342 -0.36124,0.36125 -0.94827,0.36125 -0.58702,0 -0.92568,-0.36125 -0.33867,-0.36124 -0.33867,-0.99342 v -9.30204 l -3.83822,7.27004 q -0.27094,0.49671 -0.58703,0.74507 -0.31608,0.22577 -0.74506,0.22577 -0.42898,0 -0.74507,-0.22577 -0.31609,-0.22578 -0.58702,-0.74507 l -3.8608,-7.15716 v 9.18916 q 0,0.6096 -0.36125,0.99342 -0.33866,0.36125 -0.92568,0.36125 -0.58703,0 -0.92569,-0.36125 -0.33867,-0.36124 -0.33867,-0.99342 v -13.36604 q 0,-0.65476 0.36124,-1.03858 0.38383,-0.4064 1.016,-0.4064 0.88054,0 1.37725,0.97084 l 5.01227,9.5504 4.98968,-9.5504 q 0.49672,-0.97084 1.33209,-0.97084 z"
       style="font-style:normal;font-variant:normal;font-weight:bold;font-stretch:normal;font-size:22.57777786px;line-height:1.25;font-family:nUNITO;-inkscape-font-specification:'nUNITO Bold';text-align:center;writing-mode:lr-tb;direction:ltr;text-anchor:middle;fill:#6c63ff;fill-opacity:1;fill-rule:evenodd;stroke:none;stroke-width:0.79374999;stroke-linecap:round;stroke-linejoin:round;stroke-miterlimit:4;stroke-dasharray:none;stroke-dashoffset:0;stroke-opacity:1;paint-order:fill markers stroke"
       id="path1134"
       inkscape:connector-curvature="0" />
    <path
       d="m 166.96859,198.54277 q -0.65475,0 -1.016,-0.36124 -0.36124,-0.36125 -0.36124,-0.99343 v -13.23057 q 0,-0.65476 0.38382,-1.03858 0.4064,-0.4064 1.06115,-0.4064 0.67734,0 1.06116,0.4064 0.4064,0.38382 0.4064,1.03858 v 12.192 h 6.34436 q 1.35466,0 1.35466,1.19662 0,1.19662 -1.35466,1.19662 z"
       style="font-style:normal;font-variant:normal;font-weight:bold;font-stretch:normal;font-size:22.57777786px;line-height:1.25;font-family:nUNITO;-inkscape-font-specification:'nUNITO Bold';text-align:center;writing-mode:lr-tb;direction:ltr;text-anchor:middle;fill:#6c63ff;fill-opacity:1;fill-rule:evenodd;stroke:none;stroke-width:0.79374999;stroke-linecap:round;stroke-linejoin:round;stroke-miterlimit:4;stroke-dasharray:none;stroke-dashoffset:0;stroke-opacity:1;paint-order:fill markers stroke"
       id="path1136"
       inkscape:connector-curvature="0" />
    <path
       inkscape:connector-curvature="0"
       id="path846"
       style="font-style:normal;font-variant:normal;font-weight:normal;font-stretch:normal;font-size:22.57777786px;line-height:1.25;font-family:Nunito;-inkscape-font-specification:Nunito;text-align:start;writing-mode:lr-tb;direction:ltr;text-anchor:start;fill:#fff6d5;fill-opacity:1;fill-rule:evenodd;stroke:none;stroke-width:0.79374999;stroke-linecap:round;stroke-linejoin:round;stroke-miterlimit:4;stroke-dasharray:none;stroke-dashoffset:0;stroke-opacity:1;paint-order:fill markers stroke"
       d="m 31.350095,183.13259 q 0.112889,-0.24836 0.316089,-0.38383 0.225778,-0.13546 0.474134,-0.13546 0.361244,0 0.632177,0.24835 0.293512,0.22578 0.293512,0.56445 0,0.18062 -0.09031,0.36124 l -6.479822,14.40462 q -0.135466,0.29351 -0.4064,0.45156 -0.270933,0.15804 -0.587022,0.15804 -0.316089,0 -0.587022,-0.15804 -0.270934,-0.15805 -0.4064,-0.45156 l -6.457245,-14.40462 q -0.06773,-0.18062 -0.06773,-0.33867 0,-0.36124 0.293511,-0.58702 0.293511,-0.24835 0.654756,-0.24835 0.541866,0 0.790222,0.51929 l 5.825067,13.16284 z" />
    <path
       inkscape:connector-curvature="0"
       id="path848"
       style="font-style:normal;font-variant:normal;font-weight:normal;font-stretch:normal;font-size:22.57777786px;line-height:1.25;font-family:Nunito;-inkscape-font-specification:Nunito;text-align:start;writing-mode:lr-tb;direction:ltr;text-anchor:start;fill:#fff6d5;fill-opacity:1;fill-rule:evenodd;stroke:none;stroke-width:0.79374999;stroke-linecap:round;stroke-linejoin:round;stroke-miterlimit:4;stroke-dasharray:none;stroke-dashoffset:0;stroke-opacity:1;paint-order:fill markers stroke"
       d="m 47.581401,197.62752 q 0.09031,0.18062 0.09031,0.38382 0,0.33867 -0.270933,0.56445 -0.248356,0.22577 -0.6096,0.22577 -0.564445,0 -0.790222,-0.54186 l -1.603023,-3.6576 h -8.511822 l -1.6256,3.6576 q -0.225778,0.54186 -0.790222,0.54186 -0.361245,0 -0.632178,-0.22577 -0.270933,-0.24836 -0.270933,-0.58703 0,-0.18062 0.09031,-0.36124 l 6.457244,-14.35947 q 0.135467,-0.31609 0.4064,-0.47413 0.270934,-0.15805 0.587022,-0.15805 0.338667,0 0.609601,0.18063 0.270933,0.15804 0.4064,0.45155 z m -3.8608,-4.56071 -3.589867,-8.10542 -3.567289,8.10542 z" />
    <path
       inkscape:connector-curvature="0"
       id="path850"
       style="font-style:normal;font-variant:normal;font-weight:normal;font-stretch:normal;font-size:22.57777786px;line-height:1.25;font-family:Nunito;-inkscape-font-specification:Nunito;text-align:start;writing-mode:lr-tb;direction:ltr;text-anchor:start;fill:#fff6d5;fill-opacity:1;fill-rule:evenodd;stroke:none;stroke-width:0.79374999;stroke-linecap:round;stroke-linejoin:round;stroke-miterlimit:4;stroke-dasharray:none;stroke-dashoffset:0;stroke-opacity:1;paint-order:fill markers stroke"
       d="m 62.179347,182.65845 q 0.4064,0 0.632178,0.27094 0.225777,0.24835 0.225777,0.67733 v 14.24658 q 0,0.42897 -0.248355,0.69991 -0.225778,0.24835 -0.654756,0.24835 -0.428977,0 -0.745066,-0.38382 l -9.369778,-12.53067 v 11.96623 q 0,0.42897 -0.248356,0.69991 -0.225778,0.24835 -0.632178,0.24835 -0.4064,0 -0.632177,-0.24835 -0.225778,-0.27094 -0.225778,-0.69991 v -14.24658 q 0,-0.42898 0.225778,-0.67733 0.248355,-0.27094 0.677333,-0.27094 0.451556,0 0.767644,0.38382 l 9.347201,12.53067 v -11.96622 q 0,-0.42898 0.225777,-0.67733 0.248356,-0.27094 0.654756,-0.27094 z" />
    <path
       inkscape:connector-curvature="0"
       id="path852"
       style="font-style:normal;font-variant:normal;font-weight:normal;font-stretch:normal;font-size:22.57777786px;line-height:1.25;font-family:Nunito;-inkscape-font-specification:Nunito;text-align:start;writing-mode:lr-tb;direction:ltr;text-anchor:start;fill:#fff6d5;fill-opacity:1;fill-rule:evenodd;stroke:none;stroke-width:0.79374999;stroke-linecap:round;stroke-linejoin:round;stroke-miterlimit:4;stroke-dasharray:none;stroke-dashoffset:0;stroke-opacity:1;paint-order:fill markers stroke"
       d="m 67.875298,198.80156 q -0.428978,0 -0.677334,-0.24835 -0.248355,-0.27094 -0.248355,-0.69991 v -14.24658 q 0,-0.42898 0.248355,-0.67733 0.248356,-0.27094 0.677334,-0.27094 0.428977,0 0.677333,0.27094 0.248355,0.24835 0.248355,0.67733 v 14.24658 q 0,0.42897 -0.248355,0.69991 -0.248356,0.24835 -0.677333,0.24835 z" />
    <path
       inkscape:connector-curvature="0"
       id="path854"
       style="font-style:normal;font-variant:normal;font-weight:normal;font-stretch:normal;font-size:22.57777786px;line-height:1.25;font-family:Nunito;-inkscape-font-specification:Nunito;text-align:start;writing-mode:lr-tb;direction:ltr;text-anchor:start;fill:#fff6d5;fill-opacity:1;fill-rule:evenodd;stroke:none;stroke-width:0.79374999;stroke-linecap:round;stroke-linejoin:round;stroke-miterlimit:4;stroke-dasharray:none;stroke-dashoffset:0;stroke-opacity:1;paint-order:fill markers stroke"
       d="m 73.629453,198.68867 c -0.25588,8.5e-4 -0.474133,-0.0753 -0.654755,-0.22577 -0.165571,-0.16557 -0.248356,-0.3763 -0.248356,-0.63218 v -14.224 c 0,-0.28599 0.08279,-0.51176 0.248356,-0.67733 0.16557,-0.18063 0.391348,-0.27094 0.677333,-0.27094 0.285985,0 0.511763,0.0903 0.677333,0.27094 0.165571,0.16557 0.248356,0.39134 0.248356,0.67733 v 13.50151 l 6.13507,-0.0236 c 0.270931,-0.001 0.481659,0.0677 0.632178,0.2032 0.150519,0.13546 0.225778,0.33114 0.225778,0.58702 0,0.25588 -0.07526,0.45155 -0.225778,0.58702 -0.150519,0.13546 -0.361246,0.20229 -0.632178,0.2032 z"
       sodipodi:nodetypes="scsscscscssssss" />
    <path
       inkscape:connector-curvature="0"
       id="path858"
       style="font-style:normal;font-variant:normal;font-weight:normal;font-stretch:normal;font-size:22.57777786px;line-height:1.25;font-family:Nunito;-inkscape-font-specification:Nunito;text-align:start;writing-mode:lr-tb;direction:ltr;text-anchor:start;fill:#fff6d5;fill-opacity:1;fill-rule:evenodd;stroke:none;stroke-width:0.79374999;stroke-linecap:round;stroke-linejoin:round;stroke-miterlimit:4;stroke-dasharray:none;stroke-dashoffset:0;stroke-opacity:1;paint-order:fill markers stroke"
       d="m 110.41994,197.62752 q 0.0903,0.18062 0.0903,0.38382 0,0.33867 -0.27094,0.56445 -0.24835,0.22577 -0.6096,0.22577 -0.56444,0 -0.79022,-0.54186 l -1.60302,-3.6576 h -8.511824 l -1.6256,3.6576 q -0.225778,0.54186 -0.790222,0.54186 -0.361245,0 -0.632178,-0.22577 -0.270933,-0.24836 -0.270933,-0.58703 0,-0.18062 0.09031,-0.36124 l 6.457247,-14.35947 q 0.13546,-0.31609 0.4064,-0.47413 0.27093,-0.15805 0.58702,-0.15805 0.33867,0 0.6096,0.18063 0.27093,0.15804 0.4064,0.45155 z m -3.8608,-4.56071 -3.58986,-8.10542 -3.567291,8.10542 z" />
    <path
       inkscape:connector-curvature="0"
       id="path854-8"
       style="font-style:normal;font-variant:normal;font-weight:normal;font-stretch:normal;font-size:22.57777786px;line-height:1.25;font-family:Nunito;-inkscape-font-specification:Nunito;text-align:start;writing-mode:lr-tb;direction:ltr;text-anchor:start;fill:#fff6d5;fill-opacity:1;fill-rule:evenodd;stroke:none;stroke-width:0.79374999;stroke-linecap:round;stroke-linejoin:round;stroke-miterlimit:4;stroke-dasharray:none;stroke-dashoffset:0;stroke-opacity:1;paint-order:fill markers stroke"
       d="m 84.741955,198.68867 c -0.25588,8.5e-4 -0.474133,-0.0753 -0.654755,-0.22577 -0.165571,-0.16557 -0.248356,-0.3763 -0.248356,-0.63218 v -14.224 c 0,-0.28599 0.08279,-0.51176 0.248356,-0.67733 0.16557,-0.18063 0.391348,-0.27094 0.677333,-0.27094 0.285985,0 0.511763,0.0903 0.677333,0.27094 0.165571,0.16557 0.248356,0.39134 0.248356,0.67733 v 13.50151 l 6.13507,-0.0236 c 0.270931,-0.001 0.481659,0.0677 0.632178,0.2032 0.150519,0.13546 0.225778,0.33114 0.225778,0.58702 0,0.25588 -0.07526,0.45155 -0.225778,0.58702 -0.150519,0.13546 -0.361246,0.20229 -0.632178,0.2032 z"
       sodipodi:nodetypes="scsscscscssssss" />
  </g>
</svg>
