<?xml version="1.0" encoding="UTF-8" standalone="no"?>
<!-- Created with Inkscape (http://www.inkscape.org/) -->

<svg
   xmlns:dc="http://purl.org/dc/elements/1.1/"
   xmlns:cc="http://creativecommons.org/ns#"
   xmlns:rdf="http://www.w3.org/1999/02/22-rdf-syntax-ns#"
   xmlns:svg="http://www.w3.org/2000/svg"
   xmlns="http://www.w3.org/2000/svg"
   xmlns:sodipodi="http://sodipodi.sourceforge.net/DTD/sodipodi-0.dtd"
   xmlns:inkscape="http://www.inkscape.org/namespaces/inkscape"
   width="158.54964mm"
   height="16.188267mm"
   viewBox="0 0 158.54963 16.188266"
   version="1.1"
   id="svg8"
   inkscape:version="0.92.4 (5da689c313, 2019-01-14)"
   sodipodi:docname="logo.svg">
  <defs
     id="defs2" />
  <sodipodi:namedview
     id="base"
     pagecolor="#000000"
     bordercolor="#666666"
     borderopacity="1.0"
     inkscape:pageopacity="0"
     inkscape:pageshadow="2"
     inkscape:zoom="1.4"
     inkscape:cx="315.05047"
     inkscape:cy="-97.063563"
     inkscape:document-units="mm"
     inkscape:current-layer="text817"
     showgrid="false"
     inkscape:pagecheckerboard="false"
     fit-margin-top="0"
     fit-margin-left="0"
     fit-margin-right="0"
     fit-margin-bottom="0"
     inkscape:window-width="1920"
     inkscape:window-height="1017"
     inkscape:window-x="-8"
     inkscape:window-y="-8"
     inkscape:window-maximized="1" />
  <metadata
     id="metadata5">
    <rdf:RDF>
      <cc:Work
         rdf:about="">
        <dc:format>image/svg+xml</dc:format>
        <dc:type
           rdf:resource="http://purl.org/dc/dcmitype/StillImage" />
        <dc:title></dc:title>
      </cc:Work>
    </rdf:RDF>
  </metadata>
  <g
     inkscape:label="Layer 1"
     inkscape:groupmode="layer"
     id="layer1"
     transform="translate(-17.653272,-182.48997)">
    <g
       aria-label="VANILLAHTML"
       style="font-style:normal;font-variant:normal;font-weight:bold;font-stretch:normal;font-size:25.39999962px;line-height:1.25;font-family:'PT Serif';-inkscape-font-specification:'PT Serif Bold';text-align:center;writing-mode:lr-tb;direction:ltr;text-anchor:middle;opacity:1;vector-effect:none;fill:#ffffff;fill-opacity:1;fill-rule:evenodd;stroke:none;stroke-width:0.79374999;stroke-linecap:round;stroke-linejoin:round;stroke-miterlimit:4;stroke-dasharray:none;stroke-dashoffset:0;stroke-opacity:1;paint-order:fill markers stroke"
       id="text817">
      <path
         style="font-style:normal;font-variant:normal;font-weight:bold;font-stretch:normal;font-size:25.39999962px;line-height:1.25;font-family:'PT Serif';-inkscape-font-specification:'PT Serif Bold';text-align:center;writing-mode:lr-tb;direction:ltr;text-anchor:middle;opacity:1;vector-effect:none;fill:#6c63ff;fill-opacity:1;fill-rule:evenodd;stroke:#6c63ff;stroke-width:1.52310693;stroke-linecap:round;stroke-linejoin:round;stroke-miterlimit:4;stroke-dasharray:none;stroke-dashoffset:0;stroke-opacity:1;paint-order:fill markers stroke"
         d="m 22.896098,183.2571 2.573052,5.46249 2.750869,-5.46249 z"
         id="rect1037"
         inkscape:connector-curvature="0"
         sodipodi:nodetypes="cccc" />
      <path
         inkscape:connector-curvature="0"
         id="path1116"
         style="font-style:normal;font-variant:normal;font-weight:bold;font-stretch:normal;font-size:22.57777786px;line-height:1.25;font-family:Raleway;-inkscape-font-specification:'Raleway Bold';text-align:center;writing-mode:lr-tb;direction:ltr;text-anchor:middle;fill:#fff6d5;fill-opacity:1;fill-rule:evenodd;stroke:none;stroke-width:0.79374999;stroke-linecap:round;stroke-linejoin:round;stroke-miterlimit:4;stroke-dasharray:none;stroke-dashoffset:0;stroke-opacity:1;paint-order:fill markers stroke"
         d="m 30.770961,183.25761 q 0.361244,-0.76764 1.196622,-0.76764 0.564445,0 1.016,0.36124 0.451556,0.36125 0.451556,0.90312 0,0.24835 -0.135467,0.56444 l -6.254045,13.45636 q -0.2032,0.42897 -0.632177,0.67733 -0.4064,0.22578 -0.880534,0.22578 -0.474133,0 -0.903111,-0.22578 -0.4064,-0.24836 -0.6096,-0.67733 l -6.231466,-13.45636 q -0.135467,-0.31609 -0.135467,-0.54187 0,-0.56444 0.451555,-0.92569 0.474134,-0.36124 1.061156,-0.36124 0.383822,0 0.699911,0.2032 0.338667,0.18062 0.519289,0.56444 l 5.192889,11.53725 z" />
      <path
         inkscape:connector-curvature="0"
         id="path1118"
         style="font-style:normal;font-variant:normal;font-weight:bold;font-stretch:normal;font-size:22.57777786px;line-height:1.25;font-family:Raleway;-inkscape-font-specification:'Raleway Bold';text-align:center;writing-mode:lr-tb;direction:ltr;text-anchor:middle;fill:#fff6d5;fill-opacity:1;fill-rule:evenodd;stroke:none;stroke-width:0.79374999;stroke-linecap:round;stroke-linejoin:round;stroke-miterlimit:4;stroke-dasharray:none;stroke-dashoffset:0;stroke-opacity:1;paint-order:fill markers stroke"
         d="m 48.256039,196.80428 q 0.135466,0.29351 0.135466,0.58702 0,0.51929 -0.428977,0.88054 -0.4064,0.36124 -0.948267,0.36124 -0.361245,0 -0.677333,-0.18062 -0.316089,-0.2032 -0.496712,-0.6096 l -1.354666,-3.02542 h -7.947378 l -1.354667,3.02542 q -0.180622,0.4064 -0.496711,0.6096 -0.316089,0.18062 -0.699911,0.18062 -0.519289,0 -0.948267,-0.36124 -0.428977,-0.36125 -0.428977,-0.88054 0,-0.29351 0.135466,-0.58702 l 6.231467,-13.38862 q 0.2032,-0.45156 0.6096,-0.67733 0.428978,-0.24836 0.903111,-0.24836 0.474133,0 0.880533,0.24836 0.428978,0.22577 0.632178,0.67733 z m -4.763911,-4.24462 -2.980267,-6.7056 -2.980267,6.7056 z" />
      <path
         inkscape:connector-curvature="0"
         id="path1120"
         style="font-style:normal;font-variant:normal;font-weight:bold;font-stretch:normal;font-size:22.57777786px;line-height:1.25;font-family:Raleway;-inkscape-font-specification:'Raleway Bold';text-align:center;writing-mode:lr-tb;direction:ltr;text-anchor:middle;fill:#fff6d5;fill-opacity:1;fill-rule:evenodd;stroke:none;stroke-width:0.79374999;stroke-linecap:round;stroke-linejoin:round;stroke-miterlimit:4;stroke-dasharray:none;stroke-dashoffset:0;stroke-opacity:1;paint-order:fill markers stroke"
         d="m 62.642317,182.51255 q 0.632177,0 0.993422,0.4064 0.383822,0.38382 0.383822,1.03858 v 13.25315 q 0,0.65476 -0.383822,1.06116 -0.383822,0.4064 -0.993422,0.4064 -0.722489,0 -1.106311,-0.51929 L 53.295117,187.4345 v 9.77618 q 0,0.65476 -0.361245,1.06116 -0.361244,0.4064 -0.993422,0.4064 -0.632178,0 -0.993422,-0.4064 -0.361245,-0.4064 -0.361245,-1.06116 v -13.25315 q 0,-0.65476 0.383823,-1.03858 0.383822,-0.4064 1.016,-0.4064 0.699911,0 1.083733,0.51929 l 8.218311,10.67929 v -9.7536 q 0,-0.65476 0.361244,-1.03858 0.383823,-0.4064 0.993423,-0.4064 z" />
      <path
         inkscape:connector-curvature="0"
         id="path1122"
         style="font-style:normal;font-variant:normal;font-weight:bold;font-stretch:normal;font-size:22.57777786px;line-height:1.25;font-family:Raleway;-inkscape-font-specification:'Raleway Bold';text-align:center;writing-mode:lr-tb;direction:ltr;text-anchor:middle;fill:#fff6d5;fill-opacity:1;fill-rule:evenodd;stroke:none;stroke-width:0.79374999;stroke-linecap:round;stroke-linejoin:round;stroke-miterlimit:4;stroke-dasharray:none;stroke-dashoffset:0;stroke-opacity:1;paint-order:fill markers stroke"
         d="m 68.875902,198.67824 q -0.654756,0 -1.061156,-0.4064 -0.383822,-0.4064 -0.383822,-1.06116 v -13.25315 q 0,-0.65476 0.383822,-1.03858 0.4064,-0.4064 1.061156,-0.4064 0.677333,0 1.061155,0.4064 0.4064,0.38382 0.4064,1.03858 v 13.25315 q 0,0.65476 -0.4064,1.06116 -0.383822,0.4064 -1.061155,0.4064 z" />
      <path
         inkscape:connector-curvature="0"
         id="path1124"
         style="font-style:normal;font-variant:normal;font-weight:bold;font-stretch:normal;font-size:22.57777786px;line-height:1.25;font-family:Raleway;-inkscape-font-specification:'Raleway Bold';text-align:center;writing-mode:lr-tb;direction:ltr;text-anchor:middle;fill:#fff6d5;fill-opacity:1;fill-rule:evenodd;stroke:none;stroke-width:0.79374999;stroke-linecap:round;stroke-linejoin:round;stroke-miterlimit:4;stroke-dasharray:none;stroke-dashoffset:0;stroke-opacity:1;paint-order:fill markers stroke"
         d="m 75.158167,198.54277 q -0.654756,0 -1.016,-0.36124 -0.361245,-0.36125 -0.361245,-0.99343 v -13.23057 q 0,-0.65476 0.383822,-1.03858 0.4064,-0.4064 1.061156,-0.4064 0.677333,0 1.061156,0.4064 0.4064,0.38382 0.4064,1.03858 v 12.192 h 6.344355 q 1.354667,0 1.354667,1.19662 0,1.19662 -1.354667,1.19662 z" />
      <path
         inkscape:connector-curvature="0"
         id="path1126"
         style="font-style:normal;font-variant:normal;font-weight:bold;font-stretch:normal;font-size:22.57777786px;line-height:1.25;font-family:Raleway;-inkscape-font-specification:'Raleway Bold';text-align:center;writing-mode:lr-tb;direction:ltr;text-anchor:middle;fill:#fff6d5;fill-opacity:1;fill-rule:evenodd;stroke:none;stroke-width:0.79374999;stroke-linecap:round;stroke-linejoin:round;stroke-miterlimit:4;stroke-dasharray:none;stroke-dashoffset:0;stroke-opacity:1;paint-order:fill markers stroke"
         d="m 87.68178,198.54277 q -0.654756,0 -1.016,-0.36124 -0.361245,-0.36125 -0.361245,-0.99343 v -13.23057 q 0,-0.65476 0.383822,-1.03858 0.4064,-0.4064 1.061156,-0.4064 0.677333,0 1.061156,0.4064 0.4064,0.38382 0.4064,1.03858 v 12.192 h 6.344355 q 1.354667,0 1.354667,1.19662 0,1.19662 -1.354667,1.19662 z" />
      <path
         inkscape:connector-curvature="0"
         id="path1128"
         style="font-style:normal;font-variant:normal;font-weight:bold;font-stretch:normal;font-size:22.57777786px;line-height:1.25;font-family:Raleway;-inkscape-font-specification:'Raleway Bold';text-align:center;writing-mode:lr-tb;direction:ltr;text-anchor:middle;fill:#fff6d5;fill-opacity:1;fill-rule:evenodd;stroke:none;stroke-width:0.79374999;stroke-linecap:round;stroke-linejoin:round;stroke-miterlimit:4;stroke-dasharray:none;stroke-dashoffset:0;stroke-opacity:1;paint-order:fill markers stroke"
         d="m 113.12305,196.80428 q 0.13547,0.29351 0.13547,0.58702 0,0.51929 -0.42898,0.88054 -0.4064,0.36124 -0.94826,0.36124 -0.36125,0 -0.67734,-0.18062 -0.31609,-0.2032 -0.49671,-0.6096 l -1.35466,-3.02542 h -7.94738 l -1.35467,3.02542 q -0.180621,0.4064 -0.49671,0.6096 -0.316089,0.18062 -0.699911,0.18062 -0.519289,0 -0.948267,-0.36124 -0.428978,-0.36125 -0.428978,-0.88054 0,-0.29351 0.135467,-0.58702 l 6.231469,-13.38862 q 0.2032,-0.45156 0.6096,-0.67733 0.42898,-0.24836 0.90311,-0.24836 0.47413,0 0.88053,0.24836 0.42898,0.22577 0.63218,0.67733 z m -4.76391,-4.24462 -2.98026,-6.7056 -2.98027,6.7056 z" />
      <path
         inkscape:connector-curvature="0"
         id="path1130"
         style="font-style:normal;font-variant:normal;font-weight:bold;font-stretch:normal;font-size:22.57777786px;line-height:1.25;font-family:nUNITO;-inkscape-font-specification:'nUNITO Bold';text-align:center;writing-mode:lr-tb;direction:ltr;text-anchor:middle;fill:#6c63ff;fill-opacity:1;fill-rule:evenodd;stroke:none;stroke-width:0.79374999;stroke-linecap:round;stroke-linejoin:round;stroke-miterlimit:4;stroke-dasharray:none;stroke-dashoffset:0;stroke-opacity:1;paint-order:fill markers stroke"
         d="m 127.89315,182.51255 q 0.65476,0 1.03858,0.4064 0.38382,0.38382 0.38382,1.03858 v 13.25315 q 0,0.65476 -0.4064,1.06116 -0.38382,0.4064 -1.016,0.4064 -0.65475,0 -1.03857,-0.4064 -0.38383,-0.4064 -0.38383,-1.06116 v -5.57671 h -8.15057 v 5.57671 q 0,0.65476 -0.4064,1.06116 -0.38383,0.4064 -1.03858,0.4064 -0.63218,0 -1.03858,-0.4064 -0.38382,-0.4064 -0.38382,-1.06116 v -13.25315 q 0,-0.65476 0.38382,-1.03858 0.38382,-0.4064 1.03858,-0.4064 0.65475,0 1.03858,0.4064 0.4064,0.38382 0.4064,1.03858 v 5.32835 h 8.15057 v -5.32835 q 0,-0.65476 0.38383,-1.03858 0.38382,-0.4064 1.03857,-0.4064 z" />
      <path
         inkscape:connector-curvature="0"
         id="path1132"
         style="font-style:normal;font-variant:normal;font-weight:bold;font-stretch:normal;font-size:22.57777786px;line-height:1.25;font-family:nUNITO;-inkscape-font-specification:'nUNITO Bold';text-align:center;writing-mode:lr-tb;direction:ltr;text-anchor:middle;fill:#6c63ff;fill-opacity:1;fill-rule:evenodd;stroke:none;stroke-width:0.79374999;stroke-linecap:round;stroke-linejoin:round;stroke-miterlimit:4;stroke-dasharray:none;stroke-dashoffset:0;stroke-opacity:1;paint-order:fill markers stroke"
         d="m 137.95437,198.65566 q -0.67733,0 -1.08373,-0.38382 -0.38382,-0.4064 -0.38382,-1.06116 v -12.192 h -4.10916 q -1.35466,0 -1.35466,-1.19662 0,-1.19662 1.35466,-1.19662 h 11.13085 q 1.35466,0 1.35466,1.19662 0,1.19662 -1.35466,1.19662 h -4.10916 v 12.192 q 0,0.65476 -0.4064,1.06116 -0.38382,0.38382 -1.03858,0.38382 z" />
      <path
         inkscape:connector-curvature="0"
         id="path1134"
         style="font-style:normal;font-variant:normal;font-weight:bold;font-stretch:normal;font-size:22.57777786px;line-height:1.25;font-family:nUNITO;-inkscape-font-specification:'nUNITO Bold';text-align:center;writing-mode:lr-tb;direction:ltr;text-anchor:middle;fill:#6c63ff;fill-opacity:1;fill-rule:evenodd;stroke:none;stroke-width:0.79374999;stroke-linecap:round;stroke-linejoin:round;stroke-miterlimit:4;stroke-dasharray:none;stroke-dashoffset:0;stroke-opacity:1;paint-order:fill markers stroke"
         d="m 160.71912,182.51255 q 0.63218,0 1.016,0.4064 0.38383,0.38382 0.38383,1.03858 v 13.36604 q 0,0.63218 -0.36125,0.99342 -0.36124,0.36125 -0.94827,0.36125 -0.58702,0 -0.92568,-0.36125 -0.33867,-0.36124 -0.33867,-0.99342 v -9.30204 l -3.83822,7.27004 q -0.27094,0.49671 -0.58703,0.74507 -0.31608,0.22577 -0.74506,0.22577 -0.42898,0 -0.74507,-0.22577 -0.31609,-0.22578 -0.58702,-0.74507 l -3.8608,-7.15716 v 9.18916 q 0,0.6096 -0.36125,0.99342 -0.33866,0.36125 -0.92568,0.36125 -0.58703,0 -0.92569,-0.36125 -0.33867,-0.36124 -0.33867,-0.99342 v -13.36604 q 0,-0.65476 0.36124,-1.03858 0.38383,-0.4064 1.016,-0.4064 0.88054,0 1.37725,0.97084 l 5.01227,9.5504 4.98968,-9.5504 q 0.49672,-0.97084 1.33209,-0.97084 z" />
      <path
         inkscape:connector-curvature="0"
         id="path1136"
         style="font-style:normal;font-variant:normal;font-weight:bold;font-stretch:normal;font-size:22.57777786px;line-height:1.25;font-family:nUNITO;-inkscape-font-specification:'nUNITO Bold';text-align:center;writing-mode:lr-tb;direction:ltr;text-anchor:middle;fill:#6c63ff;fill-opacity:1;fill-rule:evenodd;stroke:none;stroke-width:0.79374999;stroke-linecap:round;stroke-linejoin:round;stroke-miterlimit:4;stroke-dasharray:none;stroke-dashoffset:0;stroke-opacity:1;paint-order:fill markers stroke"
         d="m 166.96859,198.54277 q -0.65475,0 -1.016,-0.36124 -0.36124,-0.36125 -0.36124,-0.99343 v -13.23057 q 0,-0.65476 0.38382,-1.03858 0.4064,-0.4064 1.06115,-0.4064 0.67734,0 1.06116,0.4064 0.4064,0.38382 0.4064,1.03858 v 12.192 h 6.34436 q 1.35466,0 1.35466,1.19662 0,1.19662 -1.35466,1.19662 z" />
    </g>
  </g>
</svg>
