<?xml version="1.0" encoding="UTF-8" standalone="no"?>
<svg
   xmlns:dc="http://purl.org/dc/elements/1.1/"
   xmlns:cc="http://creativecommons.org/ns#"
   xmlns:rdf="http://www.w3.org/1999/02/22-rdf-syntax-ns#"
   xmlns:svg="http://www.w3.org/2000/svg"
   xmlns="http://www.w3.org/2000/svg"
   xmlns:sodipodi="http://sodipodi.sourceforge.net/DTD/sodipodi-0.dtd"
   xmlns:inkscape="http://www.inkscape.org/namespaces/inkscape"
   height="252"
   width="252"
   xml:space="preserve"
   viewBox="0 0 252 252"
   y="0px"
   x="0px"
   id="Capa_1"
   version="1.1"
   sodipodi:docname="icon.svg"
   inkscape:version="0.92.4 (5da689c313, 2019-01-14)"
   inkscape:export-filename="C:\shareddocs\jamesbachini\code\vanillaHTML\html\img\icons\icon.png"
   inkscape:export-xdpi="190.48"
   inkscape:export-ydpi="190.48"><sodipodi:namedview
   pagecolor="#ffffff"
   bordercolor="#666666"
   borderopacity="1"
   objecttolerance="10"
   gridtolerance="10"
   guidetolerance="10"
   inkscape:pageopacity="0"
   inkscape:pageshadow="2"
   inkscape:window-width="1920"
   inkscape:window-height="1017"
   id="namedview31"
   showgrid="false"
   inkscape:zoom="1.8730159"
   inkscape:cx="-34.231549"
   inkscape:cy="81.890867"
   inkscape:window-x="-8"
   inkscape:window-y="-8"
   inkscape:window-maximized="1"
   inkscape:current-layer="Capa_1" /><metadata
   id="metadata45"><rdf:RDF><cc:Work
       rdf:about=""><dc:format>image/svg+xml</dc:format><dc:type
         rdf:resource="http://purl.org/dc/dcmitype/StillImage" /><dc:title /></cc:Work></rdf:RDF></metadata><defs
   id="defs43">
	
	
	
</defs>

<g
   transform="translate(-15.046153,16.641735)"
   id="g10">
</g>
<g
   transform="translate(-15.046153,16.641735)"
   id="g12">
</g>
<g
   transform="translate(-15.046153,16.641735)"
   id="g14">
</g>
<g
   transform="translate(-15.046153,16.641735)"
   id="g16">
</g>
<g
   transform="translate(-15.046153,16.641735)"
   id="g18">
</g>
<g
   transform="translate(-15.046153,16.641735)"
   id="g20">
</g>
<g
   transform="translate(-15.046153,16.641735)"
   id="g22">
</g>
<g
   transform="translate(-15.046153,16.641735)"
   id="g24">
</g>
<g
   transform="translate(-15.046153,16.641735)"
   id="g26">
</g>
<g
   transform="translate(-15.046153,16.641735)"
   id="g28">
</g>
<g
   transform="translate(-15.046153,16.641735)"
   id="g30">
</g>
<g
   transform="translate(-15.046153,16.641735)"
   id="g32">
</g>
<g
   transform="translate(-15.046153,16.641735)"
   id="g34">
</g>
<g
   transform="translate(-15.046153,16.641735)"
   id="g36">
</g>
<g
   transform="translate(-15.046153,16.641735)"
   id="g38">
</g>
<circle
   r="124.53209"
   cy="126.40648"
   cx="126.33135"
   id="path867"
   style="opacity:1;vector-effect:none;fill:#1a1a1a;fill-opacity:1;fill-rule:evenodd;stroke:none;stroke-width:7.73925495;stroke-linecap:round;stroke-linejoin:round;stroke-miterlimit:4;stroke-dasharray:none;stroke-dashoffset:0;stroke-opacity:1;paint-order:fill markers stroke" /><path
   id="path867-1"
   d="M 126.33203 1.875 A 124.53209 124.53209 0 0 0 1.7988281 126.40625 A 124.53209 124.53209 0 0 0 126.33203 250.93945 A 124.53209 124.53209 0 0 0 250.86328 126.40625 A 124.53209 124.53209 0 0 0 126.33203 1.875 z M 126.33203 10.029297 A 116.37666 116.37666 0 0 1 242.70898 126.40625 A 116.37666 116.37666 0 0 1 126.33203 242.7832 A 116.37666 116.37666 0 0 1 9.9550781 126.40625 A 116.37666 116.37666 0 0 1 126.33203 10.029297 z "
   style="opacity:1;vector-effect:none;fill:#4d4d4d;fill-opacity:0.99065423;fill-rule:evenodd;stroke:none;stroke-width:7.73925495;stroke-linecap:round;stroke-linejoin:round;stroke-miterlimit:4;stroke-dasharray:none;stroke-dashoffset:0;stroke-opacity:1;paint-order:fill markers stroke" /><path
   style="font-style:normal;font-variant:normal;font-weight:bold;font-stretch:normal;font-size:25.39999962px;line-height:1.25;font-family:'PT Serif';-inkscape-font-specification:'PT Serif Bold';text-align:center;writing-mode:lr-tb;direction:ltr;text-anchor:middle;opacity:1;vector-effect:none;fill:#6c63ff;fill-opacity:1;fill-rule:evenodd;stroke:#6c63ff;stroke-width:16.06192207;stroke-linecap:round;stroke-linejoin:round;stroke-miterlimit:4;stroke-dasharray:none;stroke-dashoffset:0;stroke-opacity:1;paint-order:fill markers stroke"
   d="m 98.60828,61.546643 27.13411,57.604677 29.0093,-57.604677 z"
   id="rect1037"
   inkscape:connector-curvature="0"
   sodipodi:nodetypes="cccc" /><path
   inkscape:connector-curvature="0"
   id="path1116"
   style="font-style:normal;font-variant:normal;font-weight:bold;font-stretch:normal;font-size:22.57777786px;line-height:1.25;font-family:Raleway;-inkscape-font-specification:'Raleway Bold';text-align:center;writing-mode:lr-tb;direction:ltr;text-anchor:middle;opacity:1;vector-effect:none;fill:#fff6d5;fill-opacity:1;fill-rule:evenodd;stroke:none;stroke-width:8.37048912;stroke-linecap:round;stroke-linejoin:round;stroke-miterlimit:4;stroke-dasharray:none;stroke-dashoffset:0;stroke-opacity:1;paint-order:fill markers stroke"
   d="m 181.65263,61.552019 q 3.80949,-8.095145 12.61899,-8.095145 5.95233,0 10.71422,3.809455 4.76189,3.809563 4.76189,9.523851 0,2.618975 -1.42859,5.952302 L 142.36713,214.6465 q -2.14284,4.52372 -6.66662,7.14279 -4.28569,2.38096 -9.28566,2.38096 -4.99997,0 -9.52378,-2.38096 -4.28569,-2.61907 -6.42853,-7.14279 L 44.748632,72.742482 q -1.428567,-3.333327 -1.428567,-5.71429 0,-5.9523 4.761874,-9.761863 4.999978,-3.809455 11.190418,-3.809455 4.047586,0 7.38091,2.142846 3.571409,1.904727 5.47617,5.952299 L 126.89102,183.21808 Z" /></svg>