<?xml version="1.0" encoding="UTF-8" standalone="no"?>
<svg
   xmlns:dc="http://purl.org/dc/elements/1.1/"
   xmlns:cc="http://creativecommons.org/ns#"
   xmlns:rdf="http://www.w3.org/1999/02/22-rdf-syntax-ns#"
   xmlns:svg="http://www.w3.org/2000/svg"
   xmlns="http://www.w3.org/2000/svg"
   height="252"
   width="252"
   xml:space="preserve"
   viewBox="0 0 252 252"
   y="0px"
   x="0px"
   id="Capa_1"
   version="1.1"><metadata
   id="metadata45"><rdf:RDF><cc:Work
       rdf:about=""><dc:format>image/svg+xml</dc:format><dc:type
         rdf:resource="http://purl.org/dc/dcmitype/StillImage" /><dc:title></dc:title></cc:Work></rdf:RDF></metadata><defs
   id="defs43">
	
	
	
</defs>

<g
   transform="translate(-15.046153,16.641735)"
   id="g10">
</g>
<g
   transform="translate(-15.046153,16.641735)"
   id="g12">
</g>
<g
   transform="translate(-15.046153,16.641735)"
   id="g14">
</g>
<g
   transform="translate(-15.046153,16.641735)"
   id="g16">
</g>
<g
   transform="translate(-15.046153,16.641735)"
   id="g18">
</g>
<g
   transform="translate(-15.046153,16.641735)"
   id="g20">
</g>
<g
   transform="translate(-15.046153,16.641735)"
   id="g22">
</g>
<g
   transform="translate(-15.046153,16.641735)"
   id="g24">
</g>
<g
   transform="translate(-15.046153,16.641735)"
   id="g26">
</g>
<g
   transform="translate(-15.046153,16.641735)"
   id="g28">
</g>
<g
   transform="translate(-15.046153,16.641735)"
   id="g30">
</g>
<g
   transform="translate(-15.046153,16.641735)"
   id="g32">
</g>
<g
   transform="translate(-15.046153,16.641735)"
   id="g34">
</g>
<g
   transform="translate(-15.046153,16.641735)"
   id="g36">
</g>
<g
   transform="translate(-15.046153,16.641735)"
   id="g38">
</g>
<circle
   r="124.53209"
   cy="126.40648"
   cx="126.33135"
   id="path867"
   style="opacity:1;vector-effect:none;fill:#212229;fill-opacity:1;fill-rule:evenodd;stroke:none;stroke-width:7.73925495;stroke-linecap:round;stroke-linejoin:round;stroke-miterlimit:4;stroke-dasharray:none;stroke-dashoffset:0;stroke-opacity:1;paint-order:fill markers stroke" /><path
   id="path867-0-6"
   d="m 125.64757,237.95121 a 111.48341,111.48341 0 0 1 -9.7912,-0.5428 A 111.48341,111.48341 0 0 0 217.50558,126.77807 111.48341,111.48341 0 0 0 116.19697,15.462976 111.48341,111.48341 0 0 1 126.39981,14.985694 111.48341,111.48341 0 0 1 237.50548,126.84554 111.48341,111.48341 0 0 1 125.64757,237.95121 Z"
   style="opacity:1;vector-effect:none;fill:#474747;fill-opacity:0.5046729;fill-rule:evenodd;stroke:none;stroke-width:11.25677967;stroke-linecap:round;stroke-linejoin:round;stroke-miterlimit:4;stroke-dasharray:none;stroke-dashoffset:0;stroke-opacity:1;paint-order:fill markers stroke" /><path
   id="path867-0"
   d="m 129.64738,237.9127 a 111.48341,111.48341 0 0 0 9.77894,-0.7312 A 111.48341,111.48341 0 0 1 35.666027,128.52866 111.48341,111.48341 0 0 1 134.81277,15.283764 111.48341,111.48341 0 0 0 124.60263,15.002994 111.48341,111.48341 0 0 0 15.671137,128.98118 111.48341,111.48341 0 0 0 129.64738,237.9127 Z"
   style="opacity:1;vector-effect:none;fill:#474747;fill-opacity:0.5046729;fill-rule:evenodd;stroke:none;stroke-width:11.25677967;stroke-linecap:round;stroke-linejoin:round;stroke-miterlimit:4;stroke-dasharray:none;stroke-dashoffset:0;stroke-opacity:1;paint-order:fill markers stroke" /><g
   transform="matrix(0.78282972,0,0,0.78282972,27.435419,40.104565)"
   id="text878"
   style="font-style:normal;font-variant:normal;font-weight:bold;font-stretch:normal;font-size:55.94507599px;line-height:1.25;font-family:Paprika;-inkscape-font-specification:'Paprika Bold';text-align:center;writing-mode:lr-tb;direction:ltr;text-anchor:middle;opacity:1;vector-effect:none;fill:#ffa970;fill-opacity:1;fill-rule:evenodd;stroke:none;stroke-width:0.65560633;stroke-linecap:round;stroke-linejoin:round;stroke-miterlimit:4;stroke-dasharray:none;stroke-dashoffset:0;stroke-opacity:1;paint-order:fill markers stroke"
   aria-label="HTML"><path
     id="path964"
     style="font-style:normal;font-variant:normal;font-weight:bold;font-stretch:normal;font-family:Nunito;-inkscape-font-specification:'Nunito Bold';fill:#ffa970;fill-opacity:1;stroke:none;stroke-width:0.65560633;stroke-miterlimit:4;stroke-dasharray:none"
     d="m 81.891306,164.64042 q 1.622408,0 2.573474,1.00701 0.951066,0.95106 0.951066,2.57347 v 32.83976 q 0,1.62241 -1.007011,2.62942 -0.951066,1.00701 -2.517529,1.00701 -1.622407,0 -2.573473,-1.00701 -0.951066,-1.00701 -0.951066,-2.62942 V 187.24223 H 58.170594 v 13.81843 q 0,1.62241 -1.007011,2.62942 -0.951067,1.00701 -2.573474,1.00701 -1.566462,0 -2.573473,-1.00701 -0.951066,-1.00701 -0.951066,-2.62942 V 168.2209 q 0,-1.62241 0.951066,-2.57347 0.951066,-1.00701 2.573473,-1.00701 1.622407,0 2.573474,1.00701 1.007011,0.95106 1.007011,2.57347 v 13.20304 H 78.366767 V 168.2209 q 0,-1.62241 0.951066,-2.57347 0.951066,-1.00701 2.573473,-1.00701 z" /><path
     id="path966"
     style="font-style:normal;font-variant:normal;font-weight:bold;font-stretch:normal;font-family:Nunito;-inkscape-font-specification:'Nunito Bold';fill:#ffa970;fill-opacity:1;stroke:none;stroke-width:0.65560633;stroke-miterlimit:4;stroke-dasharray:none"
     d="m 106.82183,204.64115 q -1.67835,0 -2.68536,-0.95107 -0.95107,-1.00701 -0.95107,-2.62942 V 170.85032 H 93.003399 q -3.356705,0 -3.356705,-2.96509 0,-2.96509 3.356705,-2.96509 h 27.580921 q 3.35671,0 3.35671,2.96509 0,2.96509 -3.35671,2.96509 h -10.182 v 30.21034 q 0,1.62241 -1.00701,2.62942 -0.95107,0.95107 -2.57348,0.95107 z" /><path
     id="path968"
     style="font-style:normal;font-variant:normal;font-weight:bold;font-stretch:normal;font-family:Nunito;-inkscape-font-specification:'Nunito Bold';fill:#ffa970;fill-opacity:1;stroke:none;stroke-width:0.65560633;stroke-miterlimit:4;stroke-dasharray:none"
     d="m 163.23021,164.64042 q 1.56646,0 2.51753,1.00701 0.95106,0.95106 0.95106,2.57347 v 33.11949 q 0,1.56646 -0.89512,2.46158 -0.89512,0.89512 -2.34969,0.89512 -1.45457,0 -2.29375,-0.89512 -0.83918,-0.89512 -0.83918,-2.46158 v -23.04938 l -9.51066,18.01432 q -0.67134,1.23079 -1.45457,1.84619 -0.78323,0.55945 -1.84619,0.55945 -1.06296,0 -1.84619,-0.55945 -0.78323,-0.55945 -1.45457,-1.84619 l -9.56661,-17.73459 v 22.76965 q 0,1.51051 -0.89512,2.46158 -0.83917,0.89512 -2.29375,0.89512 -1.45457,0 -2.29374,-0.89512 -0.83918,-0.89512 -0.83918,-2.46158 V 168.2209 q 0,-1.62241 0.89512,-2.57347 0.95107,-1.00701 2.51753,-1.00701 2.18186,0 3.41265,2.40563 l 12.41981,23.66477 12.36386,-23.66477 q 1.23079,-2.40563 3.30076,-2.40563 z" /><path
     id="path970"
     style="font-style:normal;font-variant:normal;font-weight:bold;font-stretch:normal;font-family:Nunito;-inkscape-font-specification:'Nunito Bold';fill:#ffa970;fill-opacity:1;stroke:none;stroke-width:0.65560633;stroke-miterlimit:4;stroke-dasharray:none"
     d="m 178.71563,204.36142 q -1.62241,0 -2.51753,-0.89512 -0.89512,-0.89512 -0.89512,-2.46158 V 168.2209 q 0,-1.62241 0.95107,-2.57347 1.00701,-1.00701 2.62942,-1.00701 1.67835,0 2.62941,1.00701 1.00702,0.95106 1.00702,2.57347 v 30.21034 h 15.72056 q 3.35671,0 3.35671,2.96509 0,2.96509 -3.35671,2.96509 z" /></g><path
   id="path867-1"
   d="M 126.33203 1.875 A 124.53209 124.53209 0 0 0 1.7988281 126.40625 A 124.53209 124.53209 0 0 0 126.33203 250.93945 A 124.53209 124.53209 0 0 0 250.86328 126.40625 A 124.53209 124.53209 0 0 0 126.33203 1.875 z M 126.33203 10.029297 A 116.37666 116.37666 0 0 1 242.70898 126.40625 A 116.37666 116.37666 0 0 1 126.33203 242.7832 A 116.37666 116.37666 0 0 1 9.9550781 126.40625 A 116.37666 116.37666 0 0 1 126.33203 10.029297 z "
   style="opacity:1;vector-effect:none;fill:#666666;fill-opacity:0.99065423;fill-rule:evenodd;stroke:none;stroke-width:7.73925495;stroke-linecap:round;stroke-linejoin:round;stroke-miterlimit:4;stroke-dasharray:none;stroke-dashoffset:0;stroke-opacity:1;paint-order:fill markers stroke" /><g
   id="text986"
   style="font-style:normal;font-variant:normal;font-weight:bold;font-stretch:normal;font-size:142.68357849px;line-height:1.25;font-family:'Post No Bills Colombo';-inkscape-font-specification:'Post No Bills Colombo Bold';text-align:center;writing-mode:lr-tb;direction:ltr;text-anchor:middle;opacity:1;vector-effect:none;fill:#ffffff;fill-opacity:0.99065396;fill-rule:evenodd;stroke:#000000;stroke-width:2.22943091;stroke-linecap:round;stroke-linejoin:round;stroke-miterlimit:4;stroke-dasharray:none;stroke-dashoffset:0;stroke-opacity:1;paint-order:fill markers stroke"
   aria-label="V"><path
     id="path988"
     style="font-style:normal;font-variant:normal;font-weight:bold;font-stretch:normal;font-family:'PT Serif';-inkscape-font-specification:'PT Serif Bold';stroke-width:2.22943091"
     d="m 150.40401,57.725255 q -3.42441,-0.713418 -6.56345,-1.854886 -2.99635,-1.141469 -5.42197,-2.282937 v -5.421976 h 36.24163 v 5.421976 q -1.71221,1.141468 -4.56588,2.282937 -2.71098,1.141468 -5.70734,1.854886 l -32.81722,90.318705 -14.12568,1.7122 -36.81236,-92.030905 q -2.853672,-0.713418 -5.707343,-1.712203 -2.853672,-1.141468 -4.993926,-2.42562 V 48.165456 H 117.4441 v 5.421976 q -2.42562,1.141468 -5.42197,2.282937 -2.99636,1.141468 -6.27808,1.854886 l 19.9757,56.217335 3.28172,13.41225 h 0.28537 l 3.13904,-13.69762 z" /></g></svg>